<svg width="848" height="609" viewBox="0 0 848 609" fill="none" xmlns="http://www.w3.org/2000/svg">
<path d="M122.973 410.704V415.679C122.973 508.834 239.105 586.5 382.965 586.5" stroke="url(#paint0_linear_52_343)" stroke-width="43.3325" stroke-miterlimit="10" stroke-linecap="round"/>
<path d="M0 259.326L0 26.721C0 13.0541 11.6345 2 26.0189 2L194.543 2C212.594 2 225.709 5.95267 233.818 13.925C241.927 21.8974 245.946 34.6932 245.946 52.3128L245.946 110.263C245.946 127.749 241.927 140.478 233.818 148.45C225.709 156.422 212.594 160.375 194.543 160.375L78.1273 160.375C63.7429 160.375 52.1084 171.429 52.1084 185.096L52.1084 259.393C52.1084 273.06 40.4739 284.114 26.0895 284.114C11.7051 284.114 0.0705808 273.06 0.0705808 259.393L0 259.326ZM171.133 46.8863L78.1273 46.8863C63.7429 46.8863 52.1084 57.9404 52.1084 71.6073V90.8347C52.1084 104.502 63.7429 115.556 78.1273 115.556L171.133 115.556C180.299 115.556 186.575 114.015 189.959 111C193.344 107.985 195.036 102.626 195.036 94.9215L195.036 67.1856C195.036 59.6822 193.344 54.3897 189.959 51.375C186.575 48.3602 180.299 46.8194 171.133 46.8194V46.8863Z" fill="#6F3DF3"/>
<path d="M14.4674 608C6.47727 608 -1.28723e-05 601.522 -1.25287e-05 593.532L-6.22164e-07 316.666C-2.78552e-07 308.676 6.47727 302.198 14.4674 302.198L188.808 302.198C206.349 302.198 219.035 306.133 226.932 314.071C234.829 322.008 238.712 334.748 238.712 352.289V357.559C238.712 374.967 234.764 387.64 226.932 395.577C219.1 403.514 206.349 407.45 188.808 407.45H65.0193C57.0292 407.45 50.5519 413.927 50.5519 421.917L50.5519 593.532C50.5519 601.522 44.0746 608 36.0845 608H14.4674ZM166.024 340.484H65.0193C57.0292 340.484 50.5519 346.961 50.5519 354.951V360.233C50.5519 368.223 57.0292 374.7 65.0193 374.7H166.024C174.956 374.7 181.041 373.166 184.277 370.165C187.513 367.163 189.196 361.827 189.196 354.157V360.76C189.196 353.29 187.578 348.021 184.277 345.019C180.976 342.018 174.892 340.484 166.024 340.484Z" fill="url(#paint1_linear_52_343)"/>
<path d="M452.106 263.079L452.106 25.75C452.106 14.6169 461.106 5.61719 472.239 5.61719L826.832 5.61719C837.965 5.61719 846.965 14.6169 846.965 25.75V29.2168C846.965 40.3499 837.965 49.3496 826.832 49.3496L512.505 49.3496C501.372 49.3496 492.372 58.3494 492.372 69.4825V104.749C492.372 115.882 501.372 124.882 512.505 124.882H543.571C554.704 124.882 563.704 133.881 563.704 145.014V145.681C563.704 156.814 554.704 165.814 543.571 165.814L512.505 165.814C501.372 165.814 492.372 174.814 492.372 185.947L492.372 263.212C492.372 274.345 483.372 283.345 472.239 283.345C461.106 283.345 452.106 274.345 452.106 263.212V263.079Z" fill="#6F3DF3"/>
<path d="M585.837 259.612V163.08C585.837 150.147 596.303 139.681 609.236 139.681C622.169 139.681 632.636 150.147 632.636 163.08V259.612C632.636 272.545 622.169 283.011 609.236 283.011C596.303 283.011 585.837 272.545 585.837 259.612Z" fill="#6F3DF3"/>
<path d="M774.3 134.748V261.879C774.3 273.612 764.767 283.212 752.967 283.212C741.234 283.212 731.634 273.679 731.634 261.879V134.748C731.634 123.015 722.101 115.082 710.301 115.082H673.155C661.422 115.082 651.822 103.949 651.822 92.1488V90.2822C651.822 78.5491 661.355 68.9492 673.155 68.9492L825.632 68.9492C837.365 68.9492 846.965 78.4824 846.965 90.2822V92.1488C846.965 103.882 837.432 115.082 825.632 115.082H795.5C783.766 115.082 774.167 123.015 774.167 134.748H774.3Z" fill="#6F3DF3"/>
<path d="M452.173 587.401L452.173 323.211C452.173 311.811 461.972 302.545 474.039 302.545H476.039C488.105 302.545 497.905 311.811 497.905 323.211L497.905 546.002C497.905 557.401 507.705 566.668 519.771 566.668H622.702C634.769 566.668 644.569 575.934 644.569 587.334C644.569 598.734 634.769 608 622.702 608H473.972C461.906 608 452.106 598.734 452.106 587.334L452.173 587.401Z" fill="url(#paint2_linear_52_343)"/>
<path d="M517.209 521.741V323.878C517.209 312.078 527.142 302.545 539.409 302.545H598.565C610.832 302.545 620.764 312.078 620.764 323.878V325.011C620.764 336.811 610.832 346.344 598.565 346.344H580.208C567.942 346.344 558.008 348.411 558.008 360.21V371.677C558.008 383.477 567.942 393.01 580.208 393.01H599.898C612.165 393.01 622.098 402.543 622.098 414.343C622.098 426.142 612.165 435.676 599.898 435.676H580.208C567.942 435.676 558.008 445.209 558.008 457.008V478.869C558.008 490.669 567.942 500.202 580.208 500.202H760.138C772.404 500.202 782.337 508.179 782.337 519.978V523.712C782.337 535.512 772.404 543.073 760.138 543.073H539.409C527.142 543.073 517.209 533.54 517.209 521.741Z" fill="url(#paint3_linear_52_343)"/>
<path d="M343.777 262.413H347.041C381.097 262.413 408.704 237.873 408.704 207.602L408.704 74.8952C408.704 44.6239 381.097 20.0843 347.041 20.0843H343.777C309.721 20.0843 282.114 44.6239 282.114 74.8952V207.602C282.114 237.873 309.721 262.413 343.777 262.413Z" stroke="#6F3DF3" stroke-width="39.9992" stroke-miterlimit="10" stroke-linecap="square"/>
<path d="M340.459 522.826H350.359C382.582 522.826 408.704 497.128 408.704 465.428V381.298C408.704 349.598 382.582 323.9 350.359 323.9H340.459C308.236 323.9 282.114 349.598 282.114 381.298V465.428C282.114 497.128 308.236 522.826 340.459 522.826Z" stroke="url(#paint4_linear_52_343)" stroke-width="39.9992" stroke-miterlimit="10" stroke-linecap="square"/>
<path d="M97.6549 258.797L97.6549 241.412C97.6549 221.053 115.414 204.544 137.365 204.544L224.245 204.544" stroke="#6F3DF3" stroke-width="46.6657" stroke-linecap="round" stroke-linejoin="round"/>
<path d="M825.216 323.899L706.206 323.899C681.006 323.899 660.606 343.099 660.606 366.765V415.792C660.606 437.458 679.273 454.991 702.339 454.991H755.805C797.47 454.991 825.465 480.867 825.465 520V521.2C826.465 556 800.204 586.361 761.938 586.361H690.818" stroke="url(#paint5_linear_52_343)" stroke-width="43.3325" stroke-miterlimit="10" stroke-linecap="round"/>
<circle cx="608.42" cy="97.0994" r="23.5095" fill="#6F3DF3"/>
<rect x="311.049" y="388.079" width="68.7201" height="68.7201" rx="34.3601" fill="url(#paint6_linear_52_343)"/>
<rect x="311.049" y="105.965" width="68.7201" height="68.7201" rx="34.3601" fill="#6F3DF3"/>
<path d="M343.601 273.264V322.091" stroke="#6F3DF3" stroke-width="43.4022"/>
<defs>
<linearGradient id="paint0_linear_52_343" x1="252.969" y1="410.704" x2="252.969" y2="642" gradientUnits="userSpaceOnUse">
<stop stop-color="#6F3DF3"/>
<stop offset="1" stop-color="#6F3DF3" stop-opacity="0"/>
</linearGradient>
<linearGradient id="paint1_linear_52_343" x1="118.965" y1="399" x2="119.356" y2="657.5" gradientUnits="userSpaceOnUse">
<stop stop-color="#6F3DF3"/>
<stop offset="1" stop-color="#6F3DF3" stop-opacity="0"/>
</linearGradient>
<linearGradient id="paint2_linear_52_343" x1="548.337" y1="302.545" x2="548.337" y2="637.5" gradientUnits="userSpaceOnUse">
<stop stop-color="#6F3DF3"/>
<stop offset="1" stop-color="#6F3DF3" stop-opacity="0"/>
</linearGradient>
<linearGradient id="paint3_linear_52_343" x1="649.773" y1="302.545" x2="649.773" y2="632.5" gradientUnits="userSpaceOnUse">
<stop stop-color="#6F3DF3"/>
<stop offset="1" stop-color="#6F3DF3" stop-opacity="0"/>
</linearGradient>
<linearGradient id="paint4_linear_52_343" x1="345.409" y1="332.5" x2="345.409" y2="695.5" gradientUnits="userSpaceOnUse">
<stop stop-color="#6F3DF3"/>
<stop offset="1" stop-color="#6F3DF3" stop-opacity="0"/>
</linearGradient>
<linearGradient id="paint5_linear_52_343" x1="743.036" y1="323.899" x2="743.036" y2="610" gradientUnits="userSpaceOnUse">
<stop stop-color="#6F3DF3"/>
<stop offset="1" stop-color="#6F3DF3" stop-opacity="0"/>
</linearGradient>
<linearGradient id="paint6_linear_52_343" x1="345.409" y1="388.079" x2="344.965" y2="513.5" gradientUnits="userSpaceOnUse">
<stop stop-color="#6F3DF3"/>
<stop offset="1" stop-color="#6F3DF3" stop-opacity="0"/>
</linearGradient>
</defs>
</svg>
